<svg id="Layer_1" data-name="Layer 1" xmlns="http://www.w3.org/2000/svg" xmlns:xlink="http://www.w3.org/1999/xlink"
     viewBox="0 0 200.71 41.2">
    <defs>
        <style>
            .cls-1{fill:none;}.cls-2{fill:url(#linear-gradient);}.cls-3{fill:#828383;}.cls-4{clip-path:url(#clip-path);}.cls-5{fill:url(#radial-gradient);}.cls-6{fill:#fff;}.cls-7{fill:#ea711a;}
        </style>
        <linearGradient id="linear-gradient" x1="-5.28" y1="38.06" x2="-4.28" y2="38.06"
                        gradientTransform="matrix(0, 27.88, 27.88, 0, -969.37, 150.03)" gradientUnits="userSpaceOnUse">
            <stop offset="0" stop-color="#f18719"/>
            <stop offset="0.01" stop-color="#f18719"/>
            <stop offset="1" stop-color="#eb5c1d"/>
        </linearGradient>
        <clipPath id="clip-path" transform="translate(0 -6.98)">
            <path class="cls-1" d="M.45,22a15,15,0,1,0,15-15,15,15,0,0,0-15,15"/>
        </clipPath>
        <radialGradient id="radial-gradient" cx="-5.1" cy="37.97" r="1"
                        gradientTransform="matrix(25.3, 0, 0, -25.3, 143.76, 968.39)" gradientUnits="userSpaceOnUse">
            <stop offset="0" stop-color="#f18719"/>
            <stop offset="0.01" stop-color="#f18719"/>
            <stop offset="0.99" stop-color="#eb5c1d"/>
            <stop offset="1" stop-color="#eb5c1d"/>
        </radialGradient>
    </defs>
    <title>motivitylabs_logo</title>
    <path class="cls-2"
          d="M52.66,30H48.07V18.72a2.74,2.74,0,0,0-1-2.34,3.52,3.52,0,0,0-2.16-.73,3.39,3.39,0,0,0-2.13.73,2.8,2.8,0,0,0-.93,2.34V30H37.21V19.65q0-4.53,2.37-6.06a10.34,10.34,0,0,1,5.23-1.67,12.93,12.93,0,0,1,3,.34,6.23,6.23,0,0,1,2.67,1.33,5.74,5.74,0,0,1,2.36-1.23,13.16,13.16,0,0,1,2.83-.44,10.08,10.08,0,0,1,5.4,1.53c1.64,1,2.46,3.09,2.46,6.2V30H61.19a2.2,2.2,0,0,1-1.63-.63,2.25,2.25,0,0,1-.64-1.64v-9a2.76,2.76,0,0,0-1-2.34,3.58,3.58,0,0,0-4.33,0,2.76,2.76,0,0,0-1,2.34V30Zm14.68-1.6a6.63,6.63,0,0,1-2-3.23,14.81,14.81,0,0,1-.6-4.23,13.53,13.53,0,0,1,.5-3.6,7.31,7.31,0,0,1,1.57-3A6.9,6.9,0,0,1,71.27,12a10.24,10.24,0,0,1,4.93.44,6.8,6.8,0,0,1,3.73,3.46,11.08,11.08,0,0,1,1.13,5.13,12.66,12.66,0,0,1-.47,3.66,9.35,9.35,0,0,1-1.2,2.6A6.68,6.68,0,0,1,75.33,30a9.1,9.1,0,0,1-4.43.1A7.8,7.8,0,0,1,67.34,28.44Zm3.2-11.72a6.1,6.1,0,0,0-1.27,4.56,7.32,7.32,0,0,0,1.13,4.23,2.93,2.93,0,0,0,1.4.9,3.2,3.2,0,0,0,2,.06A3.32,3.32,0,0,0,75.66,25a7.51,7.51,0,0,0,.87-3.87,6.74,6.74,0,0,0-.77-3.59A3.46,3.46,0,0,0,74,16a3.18,3.18,0,0,0-2,0A3.42,3.42,0,0,0,70.54,16.72ZM90,30A34.91,34.91,0,0,1,85.22,30c-1.71-.13-2.56-1.22-2.56-3.26V7.13h2.39a2.1,2.1,0,0,1,1.53.66,2.18,2.18,0,0,1,.67,1.6v3H90v.93A2.12,2.12,0,0,1,89.31,15a2.19,2.19,0,0,1-1.59.64h-.47v9.85c0,.76.44,1.13,1.33,1.13H90ZM91.11,7.13h2.4a2.19,2.19,0,0,1,1.6.66,2.22,2.22,0,0,1,.67,1.6v1.4H91.11Zm0,5.19h2.4a2.16,2.16,0,0,1,1.6.67,2.2,2.2,0,0,1,.67,1.6V30H91.11ZM107.23,30H102.5L96.31,12.32h4.93l3.53,12.46,3.13-10.86a2.08,2.08,0,0,1,2.13-1.6h3.46ZM115,7.13h2.4a2.27,2.27,0,0,1,2.26,2.26v1.4H115Zm0,5.19h2.4A2.14,2.14,0,0,1,119,13a2.16,2.16,0,0,1,.67,1.6V30H115Zm13,17.72a34.89,34.89,0,0,1-4.76-.07c-1.71-.13-2.57-1.22-2.57-3.26V7.13h2.4a2.1,2.1,0,0,1,1.53.66,2.18,2.18,0,0,1,.67,1.6v3h2.73v.93A2.12,2.12,0,0,1,127.4,15a2.19,2.19,0,0,1-1.59.64h-.47v9.85c0,.76.44,1.13,1.33,1.13h1.4Zm3.26,6.26V32.64h1.27a3.21,3.21,0,0,0,2.1-.64c.51-.42.61-1.1.3-2l-6.2-17.65h5.13l3.6,12.52,3.13-10.92a2,2,0,0,1,2.13-1.6H146l-6.8,20.18a6.75,6.75,0,0,1-2,3.13,7.26,7.26,0,0,1-3.93.8h-.94a2.58,2.58,0,0,0-.5-.1Z"
          transform="translate(0 -6.98)"/>
    <path class="cls-3" d="M147.31,7.13h2.4a2.24,2.24,0,0,1,1.59.63A2.07,2.07,0,0,1,152,9.32V30h-4.65Z"
          transform="translate(0 -6.98)"/>
    <path class="cls-3"
          d="M164.05,29.24a8.14,8.14,0,0,1-3,.9,26.7,26.7,0,0,1-2.75.17,7,7,0,0,1-4.19-1.3,4.93,4.93,0,0,1-1.79-4.28,4.62,4.62,0,0,1,1.63-4,9.5,9.5,0,0,1,4.15-1.59,3.7,3.7,0,0,0,.8-.1c.31-.07.66-.12,1.06-.17,1.95-.26,2.92-.84,2.92-1.72a1.26,1.26,0,0,0-1-1.3,6.84,6.84,0,0,0-1.89-.3,4.74,4.74,0,0,0-1.66.27,1.8,1.8,0,0,0-1.06,1h-4.45a5,5,0,0,1,1.86-3.39,7.62,7.62,0,0,1,5.11-1.53,10,10,0,0,1,5.58,1.26,4.28,4.28,0,0,1,1.92,3.72v6a7.61,7.61,0,0,1-1,4.15A5.87,5.87,0,0,1,164.05,29.24ZM163,21.08a13,13,0,0,1-2.59.86l-1.53.33a4,4,0,0,0-1.73.86,2.72,2.72,0,0,0-.46,1.46,2.16,2.16,0,0,0,.6,1.6,2.51,2.51,0,0,0,1.72.53,3.68,3.68,0,0,0,4-4Z"
          transform="translate(0 -6.98)"/>
    <path class="cls-3"
          d="M172.48,9.32v5.31a5.61,5.61,0,0,1,2.13-2.05,5.84,5.84,0,0,1,2.92-.67,6.16,6.16,0,0,1,5.11,2.59,10.69,10.69,0,0,1,2,6.71,10.7,10.7,0,0,1-2,6.71A5.51,5.51,0,0,1,180,29.74a10.43,10.43,0,0,1-3.35.57,11.18,11.18,0,0,1-5.91-1.66c-1.82-1.11-2.72-3.24-2.72-6.38V7.06h2.25a2.2,2.2,0,0,1,1.6.67A2.17,2.17,0,0,1,172.48,9.32ZM180.05,21a6.14,6.14,0,0,0-1-3.72,3.19,3.19,0,0,0-2.73-1.39,3.35,3.35,0,0,0-2.85,1.32,6.38,6.38,0,0,0-1,3.79,6.91,6.91,0,0,0,.93,4,3.24,3.24,0,0,0,2.79,1.39,3.31,3.31,0,0,0,2.86-1.39A7,7,0,0,0,180.05,21Z"
          transform="translate(0 -6.98)"/>
    <path class="cls-3"
          d="M185,24.13h4.52a2.42,2.42,0,0,0,1,2,4.68,4.68,0,0,0,2.66.67,4.29,4.29,0,0,0,2.06-.47,1.42,1.42,0,0,0,.8-1.26c0-.8-.93-1.39-2.79-1.79a14.36,14.36,0,0,1-1.8-.4c-2.34-.58-3.91-1.26-4.71-2.06a4.07,4.07,0,0,1-1.33-3.19,5.28,5.28,0,0,1,1.93-4.18,8.26,8.26,0,0,1,5.18-1.53,9,9,0,0,1,5.51,1.53,5.85,5.85,0,0,1,2.06,4.31h-2.86a2.1,2.1,0,0,1-1.92-1.12l-.54-.54a3.63,3.63,0,0,0-2.19-.59,3.9,3.9,0,0,0-2,.4,1.33,1.33,0,0,0-.6,1.19c0,.71,1.15,1.31,3.46,1.79a5.47,5.47,0,0,0,.69.2,2.34,2.34,0,0,0,.57.07,12.31,12.31,0,0,1,4.71,2,4.2,4.2,0,0,1,1.27,3.19,5.29,5.29,0,0,1-2.13,4.51q-2,1.47-6,1.47-3.78,0-5.64-1.53A5.33,5.33,0,0,1,185,24.33Z"
          transform="translate(0 -6.98)"/>
    <g class="cls-4">
        <rect class="cls-5" x="0.45" width="29.92" height="29.93"/>
    </g>
    <path class="cls-6"
          d="M25.18,23.58a14.93,14.93,0,0,1-6.93.51c-1-.23,2-3.9,2.31-4.36.53-.89,0-1.54-1.54-1.54s-2.56,1-4.1,2.56c-.83.83-1.87,1.72-2.06,1.54s2.83-4.1.77-4.1a4,4,0,0,0-2.82,1.54A14.35,14.35,0,0,1,8,22.29c-3,2-4.72,1.72-5.13,1C2.09,22,5.68,14.6,16.3,13.81a15.42,15.42,0,0,1,7.34,1c7,2.52,3.85,8,1.54,8.73M18.25,11.77C9.79,11.77,6,14.89,4.4,16.14-.48,20-1.11,24.5,1.57,28.19,3.63,31,8.5,32.81,12.86,32.81a23.26,23.26,0,0,0,12.58-3.59c.39-.41-6.94,3.86-15.7,1.79-4.32-1-6.63-4.35-6.88-6.15,0,0,2.31.77,5.9-2.05,1.86-1.47,2.65-2.72,3.33-2.83s.26,1,0,1.54c-.51,1-.77,2.06,0,2.06s2.48-1.24,3.08-1.8c1.27-1.19,2.06-1.8,2.57-1.8,1.05,0-.93,1.68-1.38,2.38s-1.5,1.86,0,2.29,7.78.47,10.35-.56c2-.84,3.85-2.31,3.59-5.13S26,11.77,18.25,11.77"
          transform="translate(0 -6.98)"/>
    <path class="cls-7" d="M40.46,48H37v-.89h1.14V40.17H37v-.89h3.44v.89H39.32v6.94h1.14Z"
          transform="translate(0 -6.98)"/>
    <path class="cls-7"
          d="M48.72,48h-1.1V44.27a7.3,7.3,0,0,0,0-.84,1.51,1.51,0,0,0-.2-.62.85.85,0,0,0-.42-.37,1.78,1.78,0,0,0-.71-.12,2.46,2.46,0,0,0-1,.22,4.81,4.81,0,0,0-.94.57V48h-1.1V41.46h1.1v.72a4.54,4.54,0,0,1,1.07-.67,2.76,2.76,0,0,1,1.13-.24,2,2,0,0,1,1.61.64,2.68,2.68,0,0,1,.56,1.84Z"
          transform="translate(0 -6.98)"/>
    <path class="cls-7"
          d="M57.21,48h-1.1V44.27a5.58,5.58,0,0,0,0-.84,1.68,1.68,0,0,0-.19-.62.87.87,0,0,0-.43-.37,1.78,1.78,0,0,0-.71-.12,2.38,2.38,0,0,0-.94.22,4.88,4.88,0,0,0-.95.57V48h-1.1V41.46h1.1v.72a4.75,4.75,0,0,1,1.07-.67A2.8,2.8,0,0,1,55,41.27a2,2,0,0,1,1.62.64,2.73,2.73,0,0,1,.55,1.84Z"
          transform="translate(0 -6.98)"/>
    <path class="cls-7"
          d="M65.81,44.73A3.67,3.67,0,0,1,65,47.26a2.79,2.79,0,0,1-2.19.92,2.82,2.82,0,0,1-2.21-.92,4.31,4.31,0,0,1,0-5.06,2.8,2.8,0,0,1,2.21-.93A2.77,2.77,0,0,1,65,42.2,3.67,3.67,0,0,1,65.81,44.73Zm-1.13,0a3,3,0,0,0-.5-1.89,1.68,1.68,0,0,0-1.38-.62,1.7,1.7,0,0,0-1.4.62,3,3,0,0,0-.49,1.89,3,3,0,0,0,.5,1.87,1.66,1.66,0,0,0,1.39.63,1.68,1.68,0,0,0,1.38-.63A3,3,0,0,0,64.68,44.73Z"
          transform="translate(0 -6.98)"/>
    <path class="cls-7" d="M74,41.46,71.34,48h-1.1L67.6,41.46h1.2l2,5.2,2-5.2Z" transform="translate(0 -6.98)"/>
    <path class="cls-7"
          d="M81.18,48H80.09v-.7l-.4.28a3.07,3.07,0,0,1-.48.29,3.32,3.32,0,0,1-.63.22,3.49,3.49,0,0,1-.84.09,2.09,2.09,0,0,1-1.5-.58,2,2,0,0,1-.62-1.5,2.08,2.08,0,0,1,.32-1.2,2.22,2.22,0,0,1,.91-.73,5.07,5.07,0,0,1,1.44-.35c.56-.07,1.16-.11,1.8-.14v-.17a1.47,1.47,0,0,0-.13-.63,1,1,0,0,0-.38-.38,1.6,1.6,0,0,0-.56-.18,5.09,5.09,0,0,0-.69,0,5.14,5.14,0,0,0-1,.11,9,9,0,0,0-1.1.33H76.2V41.6c.22-.06.53-.13.94-.2a6.94,6.94,0,0,1,1.2-.1,5.33,5.33,0,0,1,1.2.11,2.49,2.49,0,0,1,.89.39,1.76,1.76,0,0,1,.56.7,2.54,2.54,0,0,1,.19,1.06Zm-1.09-1.61V44.57l-1.19.08a6.83,6.83,0,0,0-1.08.17,1.79,1.79,0,0,0-.77.42,1.07,1.07,0,0,0-.29.79,1,1,0,0,0,.34.84,1.59,1.59,0,0,0,1,.29,2.49,2.49,0,0,0,1.06-.23A5,5,0,0,0,80.09,46.39Z"
          transform="translate(0 -6.98)"/>
    <path class="cls-7"
          d="M87.6,47.94a5.62,5.62,0,0,1-.67.14,5.73,5.73,0,0,1-.66.05,2,2,0,0,1-1.52-.54,2.42,2.42,0,0,1-.52-1.73V42.38h-.75v-.92h.75V39.57h1.1v1.89H87.6v.92H85.33v3c0,.35,0,.62,0,.81a1.31,1.31,0,0,0,.17.54.72.72,0,0,0,.35.34,1.54,1.54,0,0,0,.69.11,1.85,1.85,0,0,0,.56-.08,2.39,2.39,0,0,0,.42-.13h.06Z"
          transform="translate(0 -6.98)"/>
    <path class="cls-7" d="M91,40.36H89.77V39.22H91ZM91,48h-1.1V41.46H91Z" transform="translate(0 -6.98)"/>
    <path class="cls-7"
          d="M99.61,44.73a3.67,3.67,0,0,1-.83,2.53,2.78,2.78,0,0,1-2.19.92,2.82,2.82,0,0,1-2.21-.92,4.31,4.31,0,0,1,0-5.06,2.8,2.8,0,0,1,2.21-.93,2.76,2.76,0,0,1,2.19.93A3.67,3.67,0,0,1,99.61,44.73Zm-1.14,0a3,3,0,0,0-.5-1.89,1.86,1.86,0,0,0-2.77,0,3,3,0,0,0-.5,1.89,3,3,0,0,0,.5,1.87,1.66,1.66,0,0,0,1.39.63A1.68,1.68,0,0,0,98,46.6,3,3,0,0,0,98.47,44.73Z"
          transform="translate(0 -6.98)"/>
    <path class="cls-7"
          d="M107.68,48h-1.1V44.27a7.3,7.3,0,0,0,0-.84,1.51,1.51,0,0,0-.2-.62.81.81,0,0,0-.42-.37,1.78,1.78,0,0,0-.71-.12,2.46,2.46,0,0,0-1,.22,5.13,5.13,0,0,0-.94.57V48h-1.1V41.46h1.1v.72a4.75,4.75,0,0,1,1.07-.67,2.8,2.8,0,0,1,1.13-.24,2.06,2.06,0,0,1,1.62.64,2.73,2.73,0,0,1,.55,1.84Z"
          transform="translate(0 -6.98)"/>
    <path class="cls-7"
          d="M120.91,48h-1.1v-.7l-.39.28a3.68,3.68,0,0,1-.49.29,3.09,3.09,0,0,1-.63.22,3.49,3.49,0,0,1-.84.09,2.09,2.09,0,0,1-1.5-.58,2,2,0,0,1-.61-1.5,2,2,0,0,1,.32-1.2,2.1,2.1,0,0,1,.91-.73,5.08,5.08,0,0,1,1.43-.35c.56-.07,1.16-.11,1.8-.14v-.17a1.34,1.34,0,0,0-.13-.63.93.93,0,0,0-.38-.38,1.48,1.48,0,0,0-.56-.18,4.45,4.45,0,0,0-1.65.06,8.5,8.5,0,0,0-1.1.33h-.06V41.6a9.13,9.13,0,0,1,.93-.2,7.11,7.11,0,0,1,1.2-.1,5.33,5.33,0,0,1,1.2.11,2.41,2.41,0,0,1,.89.39,1.61,1.61,0,0,1,.56.7,2.54,2.54,0,0,1,.2,1.06Zm-1.1-1.61V44.57l-1.18.08a6.79,6.79,0,0,0-1.09.17,1.75,1.75,0,0,0-.76.42,1,1,0,0,0-.3.79,1.05,1.05,0,0,0,.34.84,1.61,1.61,0,0,0,1,.29,2.46,2.46,0,0,0,1.06-.23A4.69,4.69,0,0,0,119.81,46.39Z"
          transform="translate(0 -6.98)"/>
    <path class="cls-7"
          d="M128.61,46.11a1.77,1.77,0,0,1-.75,1.47,3.15,3.15,0,0,1-2,.58,5,5,0,0,1-1.33-.17,6.74,6.74,0,0,1-1-.38V46.37h.06a4.63,4.63,0,0,0,1.16.63,3.64,3.64,0,0,0,1.22.23,2.25,2.25,0,0,0,1.14-.24.79.79,0,0,0,.41-.74.73.73,0,0,0-.22-.58,2,2,0,0,0-.86-.34c-.15,0-.36-.08-.61-.12s-.48-.1-.69-.16a2.25,2.25,0,0,1-1.22-.67,1.66,1.66,0,0,1-.36-1.09,1.83,1.83,0,0,1,.17-.76,1.89,1.89,0,0,1,.5-.64,2.55,2.55,0,0,1,.84-.43,3.63,3.63,0,0,1,1.13-.16,4.89,4.89,0,0,1,1.19.14,4.62,4.62,0,0,1,1,.35V43h-.06a3.69,3.69,0,0,0-1-.53,3.54,3.54,0,0,0-1.18-.21,2.13,2.13,0,0,0-1,.23.74.74,0,0,0-.42.69.74.74,0,0,0,.26.61,2,2,0,0,0,.79.33c.21,0,.43.1.69.14l.63.13a2.4,2.4,0,0,1,1.18.6A1.6,1.6,0,0,1,128.61,46.11Z"
          transform="translate(0 -6.98)"/>
    <path class="cls-7"
          d="M141.29,48h-1.1v-.7l-.4.28a3,3,0,0,1-1.11.51,3.49,3.49,0,0,1-.84.09,2.09,2.09,0,0,1-1.5-.58,2,2,0,0,1-.61-1.5,2.08,2.08,0,0,1,.31-1.2,2.19,2.19,0,0,1,.92-.73,4.91,4.91,0,0,1,1.43-.35c.56-.07,1.16-.11,1.8-.14v-.17a1.34,1.34,0,0,0-.13-.63,1,1,0,0,0-.38-.38,1.54,1.54,0,0,0-.56-.18,5.09,5.09,0,0,0-.69,0,5,5,0,0,0-1,.11,8.63,8.63,0,0,0-1.11.33h-.05V41.6a9.13,9.13,0,0,1,.93-.2,6.94,6.94,0,0,1,1.2-.1,5.33,5.33,0,0,1,1.2.11,2.49,2.49,0,0,1,.89.39,1.68,1.68,0,0,1,.56.7,2.54,2.54,0,0,1,.2,1.06Zm-1.1-1.61V44.57l-1.19.08a6.83,6.83,0,0,0-1.08.17,1.75,1.75,0,0,0-.76.42,1,1,0,0,0-.3.79,1.05,1.05,0,0,0,.34.84,1.59,1.59,0,0,0,1,.29,2.46,2.46,0,0,0,1.06-.23A4.69,4.69,0,0,0,140.19,46.39Z"
          transform="translate(0 -6.98)"/>
    <path class="cls-7"
          d="M155.85,45.51a2.29,2.29,0,0,1-.23,1,2.38,2.38,0,0,1-.67.84,3.46,3.46,0,0,1-1.09.59,4.76,4.76,0,0,1-1.5.21,7.33,7.33,0,0,1-1.7-.18,8.14,8.14,0,0,1-1.53-.52V46h.08a4.75,4.75,0,0,0,1.53.85,5,5,0,0,0,1.63.3,3,3,0,0,0,1.68-.41,1.25,1.25,0,0,0,.6-1.08,1.13,1.13,0,0,0-.29-.85,1.82,1.82,0,0,0-.86-.43,8,8,0,0,0-.95-.19c-.34-.05-.71-.12-1.09-.2a3.17,3.17,0,0,1-1.72-.84,2.17,2.17,0,0,1-.56-1.55,2.14,2.14,0,0,1,.93-1.79,3.75,3.75,0,0,1,2.35-.7,8,8,0,0,1,1.68.17,7,7,0,0,1,1.36.44V41.1h-.08a4,4,0,0,0-1.31-.7,5,5,0,0,0-1.66-.28,2.61,2.61,0,0,0-1.5.39,1.16,1.16,0,0,0-.56,1,1.22,1.22,0,0,0,.28.86,2,2,0,0,0,1,.47c.25.06.6.12,1.07.2s.85.16,1.17.24a3,3,0,0,1,1.46.78A2,2,0,0,1,155.85,45.51Z"
          transform="translate(0 -6.98)"/>
    <path class="cls-7"
          d="M164,44.84h-4.82a2.82,2.82,0,0,0,.18,1,1.94,1.94,0,0,0,1.22,1.16,3,3,0,0,0,.92.14,3.61,3.61,0,0,0,1.35-.27,3.15,3.15,0,0,0,1-.52h.06v1.2a7.66,7.66,0,0,1-1.14.39,4.39,4.39,0,0,1-1.22.16,3.5,3.5,0,0,1-2.54-.88,3.31,3.31,0,0,1-.91-2.5,3.62,3.62,0,0,1,.87-2.55,3,3,0,0,1,2.31-.95,2.64,2.64,0,0,1,2,.78,3.08,3.08,0,0,1,.72,2.19ZM162.94,44a1.94,1.94,0,0,0-.44-1.34,1.67,1.67,0,0,0-1.31-.48,1.94,1.94,0,0,0-1.41.52,2,2,0,0,0-.59,1.3Z"
          transform="translate(0 -6.98)"/>
    <path class="cls-7"
          d="M170.66,42.66h-.06l-.47-.09a4.44,4.44,0,0,0-.55,0,2.31,2.31,0,0,0-1,.23,5,5,0,0,0-.91.58V48h-1.1V41.46h1.1v1a5.56,5.56,0,0,1,1.16-.75,2.59,2.59,0,0,1,1-.21h.42l.38.06Z"
          transform="translate(0 -6.98)"/>
    <path class="cls-7" d="M178.26,41.46,175.61,48H174.5l-2.63-6.54h1.2l2,5.2,2-5.2Z" transform="translate(0 -6.98)"/>
    <path class="cls-7" d="M181.78,40.36h-1.24V39.22h1.24ZM181.71,48h-1.1V41.46h1.1Z" transform="translate(0 -6.98)"/>
    <path class="cls-7"
          d="M189.63,47.59a6.57,6.57,0,0,1-1,.41,3.6,3.6,0,0,1-1.05.15,3.81,3.81,0,0,1-1.3-.21,2.66,2.66,0,0,1-1-.63,2.94,2.94,0,0,1-.66-1.07,4.3,4.3,0,0,1-.23-1.5,3.47,3.47,0,0,1,.88-2.52,3.07,3.07,0,0,1,2.33-.92,4.12,4.12,0,0,1,1.1.16,6.38,6.38,0,0,1,1,.39v1.22h0a4.43,4.43,0,0,0-1-.6,2.89,2.89,0,0,0-1-.21,1.84,1.84,0,0,0-1.48.63,3.41,3.41,0,0,0,0,3.67,1.84,1.84,0,0,0,1.49.63,2.71,2.71,0,0,0,.68-.09,3.21,3.21,0,0,0,.62-.22,4.87,4.87,0,0,0,.45-.27l.34-.23h0Z"
          transform="translate(0 -6.98)"/>
    <path class="cls-7"
          d="M197.42,44.84H192.6a2.82,2.82,0,0,0,.18,1,2,2,0,0,0,.5.74,1.93,1.93,0,0,0,.72.42,3,3,0,0,0,.93.14,3.6,3.6,0,0,0,1.34-.27,3.36,3.36,0,0,0,1-.52h0v1.2a8,8,0,0,1-1.13.39,4.44,4.44,0,0,1-1.22.16,3.49,3.49,0,0,1-2.54-.88,3.31,3.31,0,0,1-.92-2.5,3.58,3.58,0,0,1,.88-2.55,3,3,0,0,1,2.3-.95,2.65,2.65,0,0,1,2.05.78,3.12,3.12,0,0,1,.71,2.19ZM196.35,44a1.94,1.94,0,0,0-.43-1.34,1.68,1.68,0,0,0-1.31-.48,1.94,1.94,0,0,0-1.41.52,2.05,2.05,0,0,0-.6,1.3Z"
          transform="translate(0 -6.98)"/>
</svg>